<?xml version="1.0" standalone="no"?>
<!DOCTYPE svg PUBLIC "-//W3C//DTD SVG 20010904//EN"
 "http://www.w3.org/TR/2001/REC-SVG-20010904/DTD/svg10.dtd">
<svg version="1.0" xmlns="http://www.w3.org/2000/svg"
 width="171.000000pt" height="153.000000pt" viewBox="0 0 171.000000 153.000000"
 preserveAspectRatio="xMidYMid meet">

<g transform="translate(0.000000,153.000000) scale(0.100000,-0.100000)"
fill="#000000" stroke="none">
<path d="M1395 1502 c-124 -52 -281 -160 -376 -258 -88 -92 -127 -147 -159
-226 -25 -62 -31 -66 -50 -43 -16 20 -49 19 -57 -1 -11 -30 14 -158 49 -254
20 -52 49 -131 65 -176 32 -87 66 -143 135 -219 l44 -48 -8 94 c-14 179 -41
268 -130 442 -24 45 -44 84 -46 88 -2 4 40 18 158 49 19 5 82 8 140 6 178 -5
327 -70 406 -177 24 -33 40 -47 47 -40 5 5 23 56 39 113 38 132 50 336 25 434
-25 95 -66 164 -121 202 -55 37 -98 41 -161 14z"/>
</g>
</svg>
