<?xml version="1.0" standalone="no"?>
<!DOCTYPE svg PUBLIC "-//W3C//DTD SVG 20010904//EN"
 "http://www.w3.org/TR/2001/REC-SVG-20010904/DTD/svg10.dtd">
<svg version="1.0" xmlns="http://www.w3.org/2000/svg"
 width="138.000000pt" height="152.000000pt" viewBox="0 0 138.000000 152.000000"
 preserveAspectRatio="xMidYMid meet">

<g transform="translate(0.000000,152.000000) scale(0.100000,-0.100000)"
fill="#000000" stroke="none">
<path d="M555 1504 c-11 -3 -41 -14 -68 -26 l-48 -22 58 -23 c71 -29 118 -73
149 -138 28 -58 30 -104 9 -145 -31 -60 -93 -73 -262 -56 -75 8 -83 7 -83 -8
0 -52 88 -154 165 -190 46 -22 119 -35 165 -29 l37 5 5 -63 c3 -35 15 -91 27
-123 11 -33 20 -60 18 -62 -1 -1 -46 23 -100 53 -105 58 -157 74 -182 53 -50
-42 42 -216 202 -378 58 -60 86 -97 97 -129 9 -25 30 -68 47 -95 32 -49 110
-118 135 -118 19 0 53 48 60 86 3 18 12 38 20 45 11 9 11 14 0 32 -13 21 -30
167 -20 167 3 0 17 -8 32 -17 26 -16 26 -16 -4 18 -46 49 -73 109 -83 183 -12
84 -2 125 48 191 23 30 41 57 41 60 0 15 -132 88 -196 108 l-72 23 51 46 c31
26 64 69 82 104 26 51 30 70 30 139 0 72 -3 86 -34 143 -39 72 -74 105 -146
138 -50 23 -141 37 -180 28z"/>
<path d="M1263 828 c30 -37 63 -113 81 -183 3 -11 3 8 0 42 -8 97 -53 183 -95
183 -18 0 -16 -5 14 -42z"/>
<path d="M1342 530 c0 -14 2 -19 5 -12 2 6 2 18 0 25 -3 6 -5 1 -5 -13z"/>
<path d="M36 451 c-9 -17 -19 -57 -22 -89 -8 -70 4 -85 68 -80 41 3 43 5 46
37 4 43 -21 111 -52 141 l-24 22 -16 -31z"/>
<path d="M130 252 c0 -44 20 -76 60 -97 36 -19 42 -10 28 44 -9 37 -57 91 -81
91 -4 0 -7 -17 -7 -38z"/>
</g>
</svg>
